HIERARCHY
ROOT Hips
{
	OFFSET 0.000000 0.000000 0.000000 
	CHANNELS 6 Xposition Yposition Zposition Yrotation Zrotation Xrotation 
	JOINT Lumbar
	{
		OFFSET 0.000000 0.000000 0.000000 
		CHANNELS 3 Zrotation Xrotation Yrotation
		JOINT Neck
		{
			OFFSET 0.000000 0.445665 0.000000 
			CHANNELS 3 Zrotation Xrotation Yrotation
			End Site
			{
				OFFSET 0.000000 0.227535 0.000000 
			}
		}
		JOINT RightShoulder
		{
			OFFSET 0.019635 0.377685 0.194865 
			CHANNELS 3 Zrotation Xrotation Yrotation
			JOINT RightElbow
			{
				OFFSET 0.000000 -0.243375 0.000000 
				CHANNELS 2 Zrotation Yrotation
				JOINT RightWrist
				{
					OFFSET 0.000000 -0.264825 0.000000 
					CHANNELS 2 Zrotation Xrotation
					End Site
					{
						OFFSET 0.006600 -0.176220 0.000990 
					}
				}
			}
		}
		JOINT LeftShoulder
		{
			OFFSET 0.019635 0.377685 -0.194865 
			CHANNELS 3 Zrotation Xrotation Yrotation
			JOINT LeftElbow
			{
				OFFSET 0.000000 -0.243375 0.000000 
				CHANNELS 2 Zrotation Yrotation
				JOINT LeftWrist
				{
					OFFSET 0.000000 -0.264825 0.000000 
					CHANNELS 2 Zrotation Xrotation
					End Site
					{
						OFFSET 0.006600 -0.176220 -0.000990 
					}
				}
			}
		}
	}
	JOINT RightHip
	{
		OFFSET 0.052140 -0.069960 0.075570 
		CHANNELS 3 Zrotation Xrotation Yrotation
		JOINT RightKnee
		{
			OFFSET 0.000000 -0.402270 0.000000 
			CHANNELS 1 Zrotation
			JOINT RightAnkle
			{
				OFFSET 0.000000 -0.404085 0.000000 
				CHANNELS 3 Zrotation Xrotation Yrotation
				End Site
				{
					OFFSET 0.204105 -0.089430 0.008415 
				}
			}
		}
	}
	JOINT LeftHip
	{
		OFFSET 0.052140 -0.069960 -0.075570 
		CHANNELS 3 Zrotation Xrotation Yrotation
		JOINT LeftKnee
		{
			OFFSET 0.000000 -0.402270 0.000000 
			CHANNELS 1 Zrotation
			JOINT LeftAnkle
			{
				OFFSET 0.000000 -0.404085 0.000000 
				CHANNELS 3 Zrotation Xrotation Yrotation
				End Site
				{
					OFFSET 0.204105 -0.089430 -0.008415 
				}
			}
		}
	}
}
MOTION
Frames: 22
Frame Time: 0.02
-0.14159 -0.02563 -0.20188 97.02884 -46.30164 -4.97715 31.68348 -4.21826 2.26496 11.09752 -14.12994 -2.11994 54.53184 0.7142 53.98411 80.01991 71.06222 16.61658 -5.13681 44.05428 12.80027 -36.97177 54.52845 -81.14496 -2.62272 6.77958 48.83704 -1.30402 -8.57116 -28.26834 -6.0415 -1.94109 -3.14412 77.04886 15.62187 -0.02146 -36.29937 -13.31145 1.98964 3.51691
-0.13887 -0.02516 -0.1997 96.95254 -46.03407 -4.67519 31.87293 -4.1751 2.89785 11.11274 -13.88571 -2.11994 55.90081 0.80553 53.90019 77.1141 70.53591 16.03645 -5.34247 40.42427 12.41305 -38.99017 57.68126 -81.39022 -0.53515 6.16041 48.69547 -1.47496 -8.67935 -28.22216 -6.04958 -1.9017 -3.12357 76.65489 15.82347 -0.01502 -36.39224 -13.1569 1.92013 3.47339
-0.13693 -0.02482 -0.1977 96.85378 -45.85961 -4.41476 31.95962 -4.15987 3.90255 11.13711 -13.55462 -2.11994 56.81973 0.53434 53.77848 74.0764 70.4893 15.35145 -5.51147 36.5222 11.84772 -41.13844 62.87795 -81.70455 2.09749 5.19725 48.633 -1.73314 -8.99407 -28.21515 -6.05653 -1.8438 -3.09433 76.30458 16.06468 0.22446 -36.56683 -12.88983 1.87591 3.43702
-0.13468 -0.02443 -0.19565 96.77168 -45.65133 -4.14521 32.09232 -4.13085 4.7375 11.15057 -13.26223 -2.11994 57.85694 0.40896 53.6378 71.17106 70.30248 14.74611 -5.67232 32.88988 11.40111 -43.21807 67.14077 -81.9803 4.42582 4.4187 48.54047 -1.94187 -9.20395 -28.18788 -6.0638 -1.79664 -3.07029 75.94503 16.28413 0.34976 -36.70192 -12.68655 1.8228 3.39938
-0.13227 -0.02402 -0.19348 96.65857 -45.41103 -3.83654 32.22668 -4.10802 5.58381 11.19093 -12.97076 -2.11994 59.28192 0.36067 53.6435 67.91361 69.78118 13.98754 -5.93899 28.61098 10.79839 -45.39366 71.47725 -82.28744 7.01359 3.52276 48.42784 -2.19133 -9.45351 -28.17128 -6.07183 -1.74047 -3.04132 75.54657 16.52007 0.5084 -36.8511 -12.43061 1.75791 3.35304
-0.13037 -0.02367 -0.1916 96.60744 -45.25909 -3.6188 32.33291 -4.07842 6.48716 11.17954 -12.65908 -2.11994 59.78485 0.06933 53.34409 65.382 70.0627 13.5306 -5.97906 25.62882 10.47559 -47.36992 76.10455 -82.54426 9.17222 2.79117 48.37382 -2.37728 -9.67436 -28.14045 -6.07806 -1.69822 -3.02034 75.23787 16.73019 0.65366 -36.98792 -12.25625 1.7234 3.32637
-0.1296 -0.02345 -0.19037 96.71624 -45.31594 -3.63764 32.39567 -4.02234 7.51222 11.00498 -12.29569 -2.11994 57.83522 -0.83424 52.13329 64.81304 72.56702 13.92687 -5.36624 26.25211 10.98858 -48.87642 81.28872 -82.66013 10.14227 2.56843 48.46535 -2.36211 -9.7351 -28.07544 -6.07905 -1.70068 -3.02459 75.15922 16.86695 0.7038 -37.08104 -12.34823 1.77246 3.35581
-0.12933 -0.02328 -0.18942 96.89103 -45.4603 -3.74709 32.43228 -3.95861 8.57086 10.78159 -11.91861 -2.11994 54.97574 -1.9633 50.63174 64.99765 75.84059 14.63344 -4.53289 28.19859 11.78471 -50.15137 86.6397 -82.72238 10.63806 2.52716 48.61212 -2.28088 -9.76494 -27.9922 -6.07835 -1.71741 -3.03698 75.16991 16.97481 0.73284 -37.15652 -12.52364 1.85045 3.40429
-0.1289 -0.02307 -0.1884 97.04763 -45.57178 -3.81751 32.47519 -3.89851 9.57788 10.59205 -11.55873 -2.11994 52.5361 -2.97095 49.31363 64.89251 78.68575 15.20448 -3.82336 29.57398 12.43955 -51.45096 91.74863 -82.79667 11.26226 2.42198 48.7307 -2.23282 -9.83077 -27.90779 -6.07877 -1.72628 -3.04491 75.14327 17.09106 0.77255 -37.23273 -12.65221 1.91136 3.44174
-0.12821 -0.0229 -0.18716 97.15601 -45.65673 -3.88012 32.53801 -3.83794 10.75255 10.35265 -11.14808 -2.11994 50.04165 -4.07552 47.7752 64.56316 81.88683 15.74997 -3.01237 30.82306 13.14524 -53.09227 97.64707 -82.91649 12.2657 2.22888 48.86435 -2.17453 -9.81558 -27.86453 -6.07766 -1.7401 -3.05564 75.104 17.22924 0.81588 -37.34248 -12.81502 1.98917 3.48924
-0.12817 -0.02268 -0.18644 97.37776 -45.81749 -3.98028 32.55457 -3.7772 11.57976 10.20657 -10.84277 -2.11994 47.46704 -5.02161 46.63014 64.87701 84.51462 16.42176 -2.3616 32.63886 13.80985 -53.96984 101.8941 -82.93905 12.3692 2.26349 48.97969 -2.12071 -9.95347 -27.73089 -6.07935 -1.74753 -3.06273 75.11224 17.31373 0.84351 -37.37727 -12.92717 2.03899 3.52053
-0.12963 -0.0223 -0.18698 97.92168 -46.15712 -4.15957 32.4498 -3.70922 11.45019 10.3191 -10.81719 -2.11994 44.76056 -5.51963 46.61516 66.8206 85.44397 17.38253 -2.20008 35.81737 14.33481 -52.75225 101.70796 -82.60434 10.02246 2.90799 49.02211 -2.09504 -10.56851 -27.35043 -6.0893 -1.73144 -3.05663 75.22493 17.26227 0.83365 -37.20835 -12.88499 1.9988 3.49987
-0.13174 -0.02187 -0.18803 98.57205 -46.57134 -4.37411 32.30003 -3.64301 10.96677 10.52865 -10.90089 -2.11994 42.03377 -5.84036 47.01012 69.37585 85.75564 18.45531 -2.2087 39.4968 14.80277 -50.78271 99.81969 -82.18853 6.80309 3.77117 49.04557 -2.07577 -11.32827 -26.87976 -6.10213 -1.70901 -3.04686 75.38344 17.1567 0.8078 -36.96502 -12.78846 1.93041 3.46269
-0.13364 -0.02148 -0.18889 99.15819 -46.95674 -4.57343 32.17125 -3.58129 10.63516 10.70168 -10.94494 -2.11994 39.40341 -6.2109 47.23706 71.63113 86.29771 19.46925 -2.14454 42.87183 15.26788 -49.18288 98.58103 -81.88101 4.02825 4.5207 49.08296 -2.05338 -11.99084 -26.45135 -6.11353 -1.69107 -3.03953 75.52343 17.07217 0.78717 -36.75515 -12.71339 1.87846 3.43465
-0.13519 -0.02104 -0.1896 99.81668 -47.32341 -4.77114 32.03873 -3.49615 10.33922 10.84341 -10.94763 -2.11994 36.36511 -6.71874 47.38181 74.01911 87.07199 20.53545 -2.05437 46.62715 15.85893 -47.45093 97.84285 -81.2854 1.01708 5.34136 49.09943 -2.02967 -12.78773 -26.01707 -6.1253 -1.6666 -3.02915 75.65519 17.00126 0.77305 -36.54351 -12.65461 1.81208 3.40031
-0.13763 -0.02068 -0.19074 100.34497 -47.74619 -4.98117 31.90425 -3.46131 9.88914 11.07102 -11.06079 -2.11994 34.1933 -6.89637 47.79244 76.24903 87.21504 21.50535 -2.06053 49.67924 16.17699 -45.82615 95.69312 -81.25205 -1.68083 6.05748 49.15482 -2.01103 -13.33629 -25.57372 -6.13711 -1.6543 -3.02426 75.81588 16.88998 0.74376 -36.32153 -12.54819 1.76887 3.37504
-0.14228 -0.02055 -0.1929 100.52027 -48.30058 -5.20143 31.7706 -3.55657 9.06084 11.53835 -11.46773 -2.11994 34.34044 -6.197 48.89418 78.03302 85.68706 22.26946 -2.30097 50.77361 15.6967 -44.61372 89.73727 -82.96173 -3.48915 6.4838 49.31668 -2.00561 -13.19288 -25.12739 -6.14763 -1.67477 -3.03425 76.02711 16.67673 0.65956 -36.05966 -12.321 1.79452 3.37778
-0.14782 -0.02051 -0.19548 100.55407 -48.90945 -5.43563 31.63742 -3.70405 8.09795 12.08425 -11.97902 -2.11994 35.37855 -5.17234 50.24028 79.60481 83.55924 22.91706 -2.63109 51.1184 14.95226 -43.54648 82.48085 -85.21225 -4.91531 6.78776 49.51888 -2.00527 -12.79004 -24.67444 -6.15827 -1.70801 -3.05005 76.26886 16.42578 0.56387 -35.79541 -12.04788 1.84462 3.3903
-0.15302 -0.02043 -0.19789 100.63139 -49.4962 -5.67242 31.50745 -3.83303 7.22062 12.57696 -12.43281 -2.11994 36.0664 -4.30045 51.43823 81.18067 81.74989 23.55634 -2.91565 51.7272 14.36681 -42.46126 76.02972 -87.09873 -6.38918 7.1112 49.70639 -2.0024 -12.48598 -24.2255 -6.16931 -1.73694 -3.06397 76.50799 16.19435 0.48468 -35.55185 -11.79693 1.88482 3.39902
-0.15796 -0.02033 -0.20023 100.8017 -50.0742 -5.87124 31.36201 -3.93968 6.22302 13.1462 -12.934 -2.11994 36.52671 -3.39972 52.80626 83.17683 79.71255 24.44959 -3.22905 52.66973 13.61877 -41.15681 68.60808 -89.46603 -8.42225 7.5906 49.879 -2.0006 -12.26444 -23.77199 -6.17847 -1.7596 -3.07469 76.701 15.94998 0.35744 -35.22343 -11.53836 1.91923 3.4046
-0.16364 -0.02028 -0.20281 100.74146 -50.6827 -6.15399 31.2488 -4.10559 5.4548 13.57427 -13.35847 -2.11994 37.66733 -2.48655 53.87361 84.22841 78.03223 24.79571 -3.49799 52.74268 13.14282 -40.341 62.92967 -90.98086 -9.1926 7.7186 50.09107 -1.99775 -11.81159 -23.32404 -6.19163 -1.79811 -3.09334 76.99708 15.72554 0.32757 -35.07151 -11.28581 1.9715 3.41909
-0.1711 -0.02037 -0.20594 100.09567 -51.3586 -6.64715 31.23021 -4.41917 5.30032 13.58582 -13.55664 -2.11994 40.51741 -1.597 54.04266 82.80958 77.33931 23.56157 -3.65301 50.50653 13.51753 -40.943 62.3098 -89.83711 -6.53465 6.85832 50.41324 -1.99068 -10.7488 -22.92458 -6.21509 -1.88005 -3.1339 77.56688 15.55483 0.57058 -35.41363 -11.05841 2.0705 3.45732
